<?xml version="1.0" encoding="UTF-8"?>
<svg id="Layer_2" data-name="Layer 2" xmlns="http://www.w3.org/2000/svg" viewBox="0 0 655.52 500.31">
  <defs>
    <style>
      .cls-1 {
        fill: #fff;
      }

      .cls-2 {
        fill: #c1c1c1;
      }

      .cls-3 {
        fill: #1bb5ea;
      }
    </style>
  </defs>
  <g id="Layer_1-2" data-name="Layer 1">
    <path class="cls-3" d="M644.86,500.31H10.66c-5.89,0-10.66-4.77-10.66-10.66H0c0-5.89,4.77-10.66,10.66-10.66H644.86c5.89,0,10.66,4.77,10.66,10.66h0c0,5.89-4.77,10.66-10.66,10.66Z"/>
    <g>
      <g>
        <path class="cls-2" d="M297.16,291.19l-50.74-58.49c-2.3-2.64-5.5-4.23-9.08-4.5-3.51-.23-6.91,.94-9.54,3.29-4.45,3.97-5.67,10.44-2.96,15.76l1.42,2.79c7.72,15.14,16.83,29.75,27.08,43.43l8.83,11.8c1.4,1.88,1.99,4.18,1.66,6.5-.33,2.32-1.54,4.37-3.43,5.78-1.88,1.4-4.19,1.99-6.51,1.66-2.31-.32-4.36-1.55-5.76-3.43l-8.84-11.8c-10.83-14.45-20.47-29.92-28.66-45.97l-1.42-2.8c-6.33-12.42-3.48-27.56,6.92-36.83,.8-.71,1.62-1.37,2.45-1.96l-18.49-46.75c-2.14-5.38-7.35-9.24-13.1-9.67-4.36-.35-8.54,1.12-11.74,4.13-3.19,3.01-4.92,7.07-4.84,11.45l2.03,120.8c.19,11.33,4.67,22.02,12.6,30.08l45.64,46.5h77.23l-1.45-58.71c-.46-8.46-3.77-16.65-9.32-23.05Z"/>
        <path class="cls-2" d="M231.67,419.9c0,4.08,3.31,7.39,7.39,7.39h61.47c4.08,0,7.4-3.31,7.4-7.39v-30.27h-76.26v30.27Z"/>
        <path class="cls-2" d="M480.26,164.13c-3.2-3.01-7.37-4.47-11.74-4.13-5.76,.43-10.97,4.29-13.11,9.67l-18.48,46.75c.83,.59,1.64,1.25,2.45,1.96,10.41,9.27,13.26,24.41,6.92,36.83l-1.42,2.8c-8.19,16.05-17.83,31.52-28.66,45.97l-8.84,11.8c-1.39,1.88-3.45,3.11-5.76,3.43-2.32,.33-4.63-.25-6.51-1.66-1.88-1.4-3.09-3.46-3.43-5.78s.26-4.63,1.66-6.5l8.84-11.8c10.25-13.67,19.36-28.29,27.08-43.43l1.42-2.79c2.71-5.32,1.49-11.79-2.96-15.76-2.63-2.35-6.03-3.52-9.54-3.29-3.57,.27-6.77,1.86-9.07,4.5l-50.74,58.49c-5.56,6.4-8.86,14.59-9.32,23.05l-1.45,58.71h77.23l45.65-46.5c7.93-8.06,12.41-18.74,12.6-30.08l2.03-120.8c.08-4.38-1.64-8.44-4.84-11.45Z"/>
        <path class="cls-2" d="M347.59,419.9c0,4.08,3.31,7.39,7.4,7.39h61.47c4.09,0,7.4-3.31,7.4-7.39v-30.27h-76.26v30.27Z"/>
      </g>
      <g>
        <path class="cls-3" d="M415.22,45.73c-56.8-4.47-73.45-35.92-74.26-37.53C338.54,3.2,333.46,.07,327.9,0c-5.56,0-10.81,3.15-13.33,8.18-.66,1.32-17.18,33.06-74.27,37.56-5.25,.41-9.45,4.6-9.45,9.86v63.07c0,72.98,86.54,118.27,90.22,120.16,2.1,1.08,4.4,1.62,6.7,1.62s4.59-.54,6.7-1.62c3.68-1.89,90.22-47.18,90.22-120.16V55.6c0-5.27-4.2-9.45-9.46-9.87Z"/>
        <path class="cls-1" d="M376.9,108.01l-50.94,50.94c-2.86,2.86-6.61,4.29-10.36,4.29s-7.5-1.43-10.36-4.29l-26.63-26.63c-5.72-5.72-5.72-15,0-20.72,5.72-5.72,15-5.72,20.72,0l16.27,16.26,40.58-40.57c5.72-5.72,15-5.72,20.72,0,5.72,5.72,5.72,15,0,20.72Z"/>
      </g>
    </g>
  </g>
</svg>